HIERARCHY
ROOT hip
{
  OFFSET 0 0 0
  CHANNELS 6 Xposition Yposition Zposition Zrotation Yrotation Xrotation
  JOINT abdomen
  {
    OFFSET 0 20.6881 -0.73152
    CHANNELS 3 Zrotation Xrotation Yrotation
    JOINT chest
    {
      OFFSET 0 11.7043 -0.48768
      CHANNELS 3 Zrotation Xrotation Yrotation
      JOINT neck
      {
        OFFSET 0 22.1894 -2.19456
        CHANNELS 3 Zrotation Xrotation Yrotation
        JOINT head
        {
          OFFSET -0.24384 7.07133 1.2192
          CHANNELS 3 Zrotation Xrotation Yrotation
          JOINT leftEye
          {
            OFFSET 4.14528 8.04674 8.04672
            CHANNELS 3 Zrotation Xrotation Yrotation
            End Site
            {
              OFFSET 1 0 0
            }
          }
          JOINT rightEye
          {
            OFFSET -3.6576 8.04674 8.04672
            CHANNELS 3 Zrotation Xrotation Yrotation
            End Site
            {
              OFFSET 1 0 0
            }
          }
        }
      }
      JOINT rCollar
      {
        OFFSET -2.68224 19.2634 -4.8768
        CHANNELS 3 Zrotation Xrotation Yrotation
        JOINT rShldr
        {
          OFFSET -8.77824 -1.95073 1.46304
          CHANNELS 3 Zrotation Xrotation Yrotation
          JOINT rForeArm
          {
            OFFSET -28.1742 -1.7115 0.48768
            CHANNELS 3 Zrotation Xrotation Yrotation
            JOINT rHand
            {
              OFFSET -22.5879 0.773209 7.07136
              CHANNELS 3 Zrotation Xrotation Yrotation
              JOINT rThumb1
              {
                OFFSET -1.2192 -0.487915 3.41376
                CHANNELS 3 Zrotation Xrotation Yrotation
                JOINT rThumb2
                {
                  OFFSET -3.37035 -0.52449 3.41376
                  CHANNELS 3 Zrotation Xrotation Yrotation
                  End Site
                  {
                    OFFSET -1.78271 -1.18214 1.43049
                  }
                }
              }
              JOINT rIndex1
              {
                OFFSET -7.75947 0.938293 5.60832
                CHANNELS 3 Zrotation Xrotation Yrotation
                JOINT rIndex2
                {
                  OFFSET -2.54057 -0.884171 1.56538
                  CHANNELS 3 Zrotation Xrotation Yrotation
                  End Site
                  {
                    OFFSET -1.62519 -0.234802 1.16502
                  }
                }
              }
              JOINT rMid1
              {
                OFFSET -8.24714 1.18213 3.41376
                CHANNELS 3 Zrotation Xrotation Yrotation
                JOINT rMid2
                {
                  OFFSET -3.10165 -0.590103 1.0647
                  CHANNELS 3 Zrotation Xrotation Yrotation
                  End Site
                  {
                    OFFSET -2.48547 -0.328903 0.83742
                  }
                }
              }
              JOINT rRing1
              {
                OFFSET -8.82822 0.546677 1.51678
                CHANNELS 3 Zrotation Xrotation Yrotation
                JOINT rRing2
                {
                  OFFSET -2.60934 -0.819778 -0.0198488
                  CHANNELS 3 Zrotation Xrotation Yrotation
                  End Site
                  {
                    OFFSET -2.33842 -0.294052 0.168128
                  }
                }
              }
              JOINT rPinky1
              {
                OFFSET -8.27202 -0.0477905 -0.4584
                CHANNELS 3 Zrotation Xrotation Yrotation
                JOINT rPinky2
                {
                  OFFSET -1.82734 -0.647385 -0.700984
                  CHANNELS 3 Zrotation Xrotation Yrotation
                  End Site
                  {
                    OFFSET -1.69225 -0.51767 -0.607171
                  }
                }
              }
            }
          }
        }
      }
      JOINT lCollar
      {
        OFFSET 2.68224 19.2634 -4.8768
        CHANNELS 3 Zrotation Xrotation Yrotation
        JOINT lShldr
        {
          OFFSET 8.77824 -1.95073 1.46304
          CHANNELS 3 Zrotation Xrotation Yrotation
          JOINT lForeArm
          {
            OFFSET 28.1742 -1.7115 0.48768
            CHANNELS 3 Zrotation Xrotation Yrotation
            JOINT lHand
            {
              OFFSET 22.5879 0.773209 7.07136
              CHANNELS 3 Zrotation Xrotation Yrotation
              JOINT lThumb1
              {
                OFFSET 1.2192 -0.487915 3.41376
                CHANNELS 3 Zrotation Xrotation Yrotation
                JOINT lThumb2
                {
                  OFFSET 3.37035 -0.52449 3.41376
                  CHANNELS 3 Zrotation Xrotation Yrotation
                  End Site
                  {
                    OFFSET 1.78271 -1.18214 1.43049
                  }
                }
              }
              JOINT lIndex1
              {
                OFFSET 7.75947 0.938293 5.60832
                CHANNELS 3 Zrotation Xrotation Yrotation
                JOINT lIndex2
                {
                  OFFSET 2.54057 -0.884171 1.56538
                  CHANNELS 3 Zrotation Xrotation Yrotation
                  End Site
                  {
                    OFFSET 1.62519 -0.234802 1.16502
                  }
                }
              }
              JOINT lMid1
              {
                OFFSET 8.24714 1.18213 3.41376
                CHANNELS 3 Zrotation Xrotation Yrotation
                JOINT lMid2
                {
                  OFFSET 3.10165 -0.590103 1.0647
                  CHANNELS 3 Zrotation Xrotation Yrotation
                  End Site
                  {
                    OFFSET 2.48547 -0.328903 0.83742
                  }
                }
              }
              JOINT lRing1
              {
                OFFSET 8.82822 0.546677 1.51678
                CHANNELS 3 Zrotation Xrotation Yrotation
                JOINT lRing2
                {
                  OFFSET 2.60934 -0.819778 -0.0198488
                  CHANNELS 3 Zrotation Xrotation Yrotation
                  End Site
                  {
                    OFFSET 2.33842 -0.294052 0.168128
                  }
                }
              }
              JOINT lPinky1
              {
                OFFSET 8.27202 -0.0477905 -0.4584
                CHANNELS 3 Zrotation Xrotation Yrotation
                JOINT lPinky2
                {
                  OFFSET 1.82734 -0.647385 -0.700984
                  CHANNELS 3 Zrotation Xrotation Yrotation
                  End Site
                  {
                    OFFSET 1.69225 -0.51767 -0.607171
                  }
                }
              }
            }
          }
        }
      }
    }
  }
  JOINT rButtock
  {
    OFFSET -8.77824 4.35084 1.2192
    CHANNELS 3 Zrotation Xrotation Yrotation
    JOINT rThigh
    {
      OFFSET 0 -1.70687 -2.19456
      CHANNELS 3 Zrotation Xrotation Yrotation
      JOINT rShin
      {
        OFFSET 0 -36.8199 0.73152
        CHANNELS 3 Zrotation Xrotation Yrotation
        JOINT rFoot
        {
          OFFSET 0.73152 -45.1104 -5.12064
          CHANNELS 3 Zrotation Xrotation Yrotation
          End Site
          {
            OFFSET -1.1221 -3.69964 12.103
          }
        }
      }
    }
  }
  JOINT lButtock
  {
    OFFSET 8.77824 4.35084 1.2192
    CHANNELS 3 Zrotation Xrotation Yrotation
    JOINT lThigh
    {
      OFFSET 0 -1.70687 -2.19456
      CHANNELS 3 Zrotation Xrotation Yrotation
      JOINT lShin
      {
        OFFSET 0 -36.8199 0.73152
        CHANNELS 3 Zrotation Xrotation Yrotation
        JOINT lFoot
        {
          OFFSET -0.73152 -45.1104 -5.12064
          CHANNELS 3 Zrotation Xrotation Yrotation
          End Site
          {
            OFFSET 1.1221 -3.69964 12.103
          }
        }
      }
    }
  }
}
MOTION
Frames:	6
Frame Time:	0.00833333
-34.0921 84.7795 -70.1045 0.0 0.0 0.0 1.08609 -0.00408966 0.0299 0.299454 -0.00345765 0.0518757 5.76622e-14 0.0 -7.45439e-17 1.73645e-13 3.18055e-15 -2.26739e-16 -0.0 0.0 0.0 -0.0 0.0 0.0 2.90717e-14 -3.30014e-17 9.93923e-17 6.08847e-13 -9.19379e-16 2.18663e-15 1.04598e-11 -3.14716e-12 -1.145e-13 1.19584e-10 3.00289e-12 6.36111e-14 2.82098e-10 -3.11651e-13 -1.17681e-13 4.8716e-10 -5.37514e-13 -2.25024e-13 2.82102e-10 -3.09309e-13 -1.39944e-13 7.73091 5.47488 0.417314 2.82098e-10 -3.11893e-13 -1.17681e-13 2.90554 0.965183 0.102902 2.82106e-10 -3.11794e-13 -1.21656e-13 10.2786 0.731801 0.0259123 2.82099e-10 -3.10899e-13 -1.145e-13 2.22167 -0.733487 -0.20892 2.89753e-14 -3.06719e-17 -1.98785e-16 6.04893e-13 -1.12438e-15 3.97569e-16 1.04389e-11 3.10203e-12 -9.54166e-14 1.19588e-10 -3.2669e-12 5.40694e-14 2.82073e-10 -3.51401e-13 -1.24042e-13 4.87142e-10 -6.01125e-13 -2.23434e-13 2.82068e-10 -3.50259e-13 -1.24042e-13 -7.73091 5.47488 -0.417314 2.82073e-10 -3.51153e-13 -1.27222e-13 -2.90554 0.965183 -0.102902 2.82062e-10 -3.51153e-13 -1.28017e-13 -10.2786 0.731801 -0.0259123 2.8208e-10 -3.48668e-13 -1.36764e-13 -2.22167 -0.733487 0.20892 -2.03217e-16 0.0 -3.88251e-19 1.33832 -5.65671 -0.117774 0.000451336 4.69002 0.03133 -0.52424 0.964881 0.0795 2.03217e-16 0.0 3.88251e-19 0.313111 -1.92005 0.0118704 0.00935095 -2.07854 0.0772794 0.510248 3.99665 -0.140016
-29.8901 82.2376 -75.3532 -155.654 67.2948 -146.589 3.69004 1.9454 -0.126512 0.87629 -0.436869 0.0881184 -3.17747 0.908967 -1.90373 4.16076 -3.63289 -2.57827 -0.0 0.0 0.0 -0.0 0.0 0.0 -6.16593e-14 -3.76283e-13 1.54251e-13 17.405 3.40758 3.28808 -6.25823 -3.4153 9.07485 0.0917215 -6.7412 -0.924089 5.81198e-10 -2.85718e-10 2.69625e-10 9.97453e-10 -5.02104e-10 4.7392e-10 5.812e-10 -2.85716e-10 2.69607e-10 7.73091 5.47488 0.417314 5.81197e-10 -2.85717e-10 2.69625e-10 2.90554 0.965183 0.102902 5.81203e-10 -2.85717e-10 2.69621e-10 10.2786 0.731801 0.0259123 5.81196e-10 -2.85716e-10 2.69629e-10 2.22167 -0.733487 -0.20892 -6.1733e-14 -3.76279e-13 1.54026e-13 -21.8498 5.15137 0.156584 6.06282 -3.25839 -8.85885 -0.00375067 1.37242 -0.192688 5.44583e-10 1.31855e-09 5.68062e-10 9.43335e-10 2.27886e-09 9.8107e-10 5.44578e-10 1.31855e-09 5.68066e-10 -7.73091 5.47488 -0.417314 5.44584e-10 1.31855e-09 5.68057e-10 -2.90554 0.965183 -0.102902 5.44572e-10 1.31855e-09 5.6806e-10 -10.2786 0.731801 -0.0259123 5.44589e-10 1.31856e-09 5.6805e-10 -2.22167 -0.733487 0.20892 -2.03217e-16 0.0 -3.88251e-19 3.37703 -7.19286 -1.2733 0.0567809 10.9391 0.219066 -0.484837 -6.81577 0.167734 2.03217e-16 0.0 3.88251e-19 3.95409 -14.4171 3.01035 -0.0365474 15.3399 -0.168339 0.453732 -1.74775 -0.248689
-29.4911 82.2803 -75.4648 -154.137 67.1899 -145.043 6.42696 3.99393 -0.30913 1.50031 -0.890615 0.120913 -6.47038 1.86954 -3.91178 8.18887 -7.43244 -5.33028 -0.0 0.0 0.0 -0.0 0.0 0.0 -1.63703e-13 -8.00014e-13 3.30613e-13 35.408 6.9531 6.75934 -11.6948 -6.72392 18.7467 -0.0540527 -13.8094 -1.93731 9.19243e-10 -6.11472e-10 5.89423e-10 1.57392e-09 -1.07458e-09 1.03555e-09 9.19243e-10 -6.1147e-10 5.89411e-10 7.73091 5.47488 0.417314 9.19241e-10 -6.1147e-10 5.89422e-10 2.90554 0.965183 0.102902 9.19243e-10 -6.1147e-10 5.8942e-10 10.2786 0.731801 0.0259123 9.19238e-10 -6.11469e-10 5.89428e-10 2.22167 -0.733487 -0.20892 -1.63752e-13 -8.00008e-13 3.30467e-13 -44.9917 10.5893 0.321352 11.3823 -6.43681 -18.3044 0.00241931 2.84568 -0.399913 8.1257e-10 2.85987e-09 1.20668e-09 1.40922e-09 4.94303e-09 2.08417e-09 8.12563e-10 2.85987e-09 1.20669e-09 -7.73091 5.47488 -0.417314 8.12572e-10 2.85987e-09 1.20668e-09 -2.90554 0.965183 -0.102902 8.12559e-10 2.85987e-09 1.20668e-09 -10.2786 0.731801 -0.0259123 8.12575e-10 2.85988e-09 1.20667e-09 -2.22167 -0.733487 0.20892 -2.03217e-16 0.0 -3.88251e-19 5.43629 -8.84438 -2.5294 0.0692697 17.5795 0.428842 -0.411328 -15.0555 0.281456 2.03217e-16 0.0 3.88251e-19 9.35262 -27.4611 6.75002 0.10436 33.7909 -0.500508 0.376148 -7.84612 -0.342796
-29.0139 82.2728 -75.7538 -154.277 67.2756 -145.179 8.93001 5.84423 -0.441411 2.03161 -1.30369 0.160638 -9.35136 2.71486 -5.71691 11.4897 -10.8096 -7.85956 -0.0 0.0 0.0 -0.0 0.0 0.0 -2.43121e-13 -1.12878e-12 4.62554e-13 51.0324 10.0871 10.003 -15.6301 -9.21947 27.5614 -0.413263 -20.2019 -2.93372 1.1794e-09 -8.56531e-10 8.09109e-10 2.01804e-09 -1.50524e-09 1.42221e-09 1.1794e-09 -8.5653e-10 8.09102e-10 7.73091 5.47488 0.417314 1.1794e-09 -8.56527e-10 8.09109e-10 2.90554 0.965183 0.102902 1.1794e-09 -8.56528e-10 8.09107e-10 10.2786 0.731801 0.0259123 1.17939e-09 -8.56527e-10 8.09115e-10 2.22167 -0.733487 -0.20892 -2.4315e-13 -1.12877e-12 4.62474e-13 -65.6365 15.4536 0.485405 15.2564 -8.84209 -26.8778 0.0165016 4.11708 -0.579393 1.0696e-09 3.95635e-09 1.70444e-09 1.85572e-09 6.83779e-09 2.94366e-09 1.0696e-09 3.95635e-09 1.70445e-09 -7.73091 5.47488 -0.417314 1.06961e-09 3.95636e-09 1.70443e-09 -2.90554 0.965183 -0.102902 1.06959e-09 3.95635e-09 1.70444e-09 -10.2786 0.731801 -0.0259123 1.06961e-09 3.95637e-09 1.70442e-09 -2.22167 -0.733487 0.20892 -2.03217e-16 0.0 -3.88251e-19 7.2658 -10.2504 -3.61318 0.0363814 23.4362 0.63521 -0.328174 -22.3767 0.368409 2.03217e-16 0.0 3.88251e-19 16.1041 -38.9248 11.2408 0.512902 50.1727 -1.0016 0.273273 -13.2362 -0.479095
-28.5563 82.2355 -76.0958 -155.156 67.326 -146.061 10.8204 7.19914 -0.445357 2.33038 -1.61509 0.217669 -11.3302 3.28343 -7.00926 13.6644 -13.2133 -9.71676 -0.0 0.0 0.0 -0.0 0.0 0.0 -2.65974e-13 -1.22015e-12 4.83444e-13 61.5117 12.3112 12.553 -17.955 -10.6384 33.9194 -0.827851 -24.9244 -3.74463 1.24483e-09 -8.99852e-10 7.78517e-10 2.1313e-09 -1.58135e-09 1.37143e-09 1.24483e-09 -8.9985e-10 7.78511e-10 7.73091 5.47488 0.417314 1.24483e-09 -8.99848e-10 7.78517e-10 2.90554 0.965183 0.102902 1.24483e-09 -8.99849e-10 7.78515e-10 10.2786 0.731801 0.0259123 1.24482e-09 -8.99848e-10 7.78523e-10 2.22167 -0.733487 -0.20892 -2.65991e-13 -1.22014e-12 4.83395e-13 -79.9806 18.8844 0.634085 17.5353 -10.1957 -32.9859 0.029346 4.88408 -0.688097 1.29926e-09 3.94076e-09 1.85001e-09 2.25379e-09 6.80902e-09 3.1941e-09 1.29925e-09 3.94076e-09 1.85002e-09 -7.73091 5.47488 -0.417314 1.29926e-09 3.94076e-09 1.85e-09 -2.90554 0.965183 -0.102902 1.29925e-09 3.94076e-09 1.85001e-09 -10.2786 0.731801 -0.0259123 1.29926e-09 3.94077e-09 1.85e-09 -2.22167 -0.733487 0.20892 -2.03217e-16 0.0 -3.88251e-19 8.66711 -11.0566 -4.24072 -0.0119552 27.3347 0.796382 -0.297981 -27.4024 0.358874 2.03217e-16 0.0 3.88251e-19 22.6275 -46.8739 15.6425 1.14856 61.3847 -1.66386 0.132191 -16.8554 -0.713205
-28.1704 82.1867 -76.3885 -155.518 67.3267 -146.373 11.8681 7.87208 -0.267912 2.29445 -1.78797 0.299894 -12.106 3.47317 -7.57773 14.6033 -14.314 -10.5439 -0.0 0.0 0.0 -0.0 0.0 0.0 -2.06294e-13 -9.56619e-13 3.21881e-13 65.174 13.3512 14.0513 -18.8737 -11.2055 36.6883 -1.07575 -27.2977 -4.18003 9.80485e-10 -6.29212e-10 3.47425e-10 1.68304e-09 -1.1045e-09 6.20249e-10 9.80487e-10 -6.29208e-10 3.47414e-10 7.73091 5.47488 0.417314 9.80482e-10 -6.29207e-10 3.47427e-10 2.90554 0.965183 0.102902 9.80482e-10 -6.29208e-10 3.47424e-10 10.2786 0.731801 0.0259123 9.80477e-10 -6.29207e-10 3.47432e-10 2.22167 -0.733487 -0.20892 -2.06308e-13 -9.56609e-13 3.21807e-13 -85.4281 20.3869 0.772997 18.3937 -10.6916 -35.5297 0.0300758 4.81657 -0.678624 1.69022e-09 1.98952e-09 1.53286e-09 2.92987e-09 3.43069e-09 2.64308e-09 1.69021e-09 1.98952e-09 1.53287e-09 -7.73091 5.47488 -0.417314 1.69022e-09 1.98952e-09 1.53285e-09 -2.90554 0.965183 -0.102902 1.69021e-09 1.98952e-09 1.53286e-09 -10.2786 0.731801 -0.0259123 1.69022e-09 1.98953e-09 1.53285e-09 -2.22167 -0.733487 0.20892 -2.03217e-16 0.0 -3.88251e-19 9.5684 -11.0398 -4.18425 -0.0311823 28.5001 0.868514 -0.382377 -29.2128 0.186757 2.03217e-16 0.0 3.88251e-19 26.295 -50.3476 17.9901 1.53061 65.3572 -2.04789 -0.0323299 -17.9591 -1.05219
